#!OML:ASF H:\Terrain\Patient Classification 1\Terrain2\Thursday\justin.ASF
:FULLY-SPECIFIED
:DEGREES
3610
root -11.5165 17.3727 -2.037 178.494 -180.078 180.929
lowerback 7.29363 0.217828 -1.75636
upperback 2.15664 0.196491 1.46659
thorax -1.87261 0.0986641 2.48253
lowerneck -2.63637 -13.8244 -17.8428
upperneck 13.7822 -18.7964 9.28467
head 7.23026 -9.48778 4.04831
rclavicle 1.19271e-015 -9.14409e-015
rhumerus -25.0658 1.26687 -87.6392
rradius 32.4368
rwrist -7.7433
rhand -19.392 11.8957
rfingers 7.12502
rthumb 6.92676 -17.971
lclavicle 1.19271e-015 -9.14409e-015
lhumerus -38.8868 10.1921 81.562
lradius 30.5412
lwrist 4.51658
lhand -17.0592 24.3527
lfingers 7.12502
lthumb 9.17819 54.1329
rfemur -12.7585 -10.4007 19.7359
rtibia 45.9709
rfoot -20.1739 -22.107
rtoes 20.1744
lfemur -8.57314 -0.338506 -19.1977
ltibia 27.6749
lfoot -14.5583 -12.5465
ltoes 6.53023
3611
root -11.521 17.3741 -2.03915 178.337 -180.454 180.565
lowerback 7.46772 0.0733789 -1.48798
upperback 2.2799 0.0247293 1.58951
thorax -1.83258 0.011004 2.47373
lowerneck -2.52362 -13.9399 -17.9673
upperneck 13.4228 -18.9916 9.60514
head 7.16589 -9.56965 4.15149
rclavicle 1.15792e-014 7.95139e-015
rhumerus -24.7495 1.96081 -88.0997
rradius 32.6624
rwrist -8.36762
rhand -19.5178 12.1654
rfingers 7.12502
rthumb 6.80527 -17.7053
lclavicle 1.15792e-014 7.95139e-015
lhumerus -38.7491 10.3776 81.403
lradius 29.8943
lwrist 3.97014
lhand -15.7771 24.7845
lfingers 7.12502
lthumb 10.4151 54.5065
rfemur -12.7867 -9.67558 20.0713
rtibia 46.4768
rfoot -19.227 -22.0985
rtoes 22.704
lfemur -8.40125 -0.510229 -18.7728
ltibia 27.4905
lfoot -14.2981 -12.8861
ltoes 7.51756
3612
root -11.529 17.3721 -2.03952 178.233 -180.79 180.545
lowerback 7.54697 -0.049819 -1.66771
upperback 2.36061 -0.151525 1.66847
thorax -1.78273 -0.078345 2.67274
lowerneck -2.38916 -14.0093 -18.0462
upperneck 13.0518 -19.1133 9.83236
head 7.07068 -9.62101 4.23235
rclavicle -3.03147e-015 -1.63003e-014
rhumerus -24.5847 2.70978 -88.484
rradius 32.8852
rwrist -9.26478
rhand -19.406 13.7213
rfingers 7.12502
rthumb 6.91323 -16.1458
lclavicle -3.03147e-015 -1.63003e-014
lhumerus -38.7111 10.6925 81.2068
lradius 29.1396
lwrist 3.25646
lhand -15.5851 25.2766
lfingers 7.12502
lthumb 10.6004 54.9893
rfemur -12.8559 -8.96719 20.0237
rtibia 46.9393
rfoot -18.8388 -21.5695
rtoes 24.246
lfemur -8.20865 -0.555095 -18.7324
ltibia 27.2128
lfoot -14.1953 -13.0824
ltoes 6.92281
3613
root -11.5435 17.3838 -2.03983 178.23 -181.2 180.934
lowerback 7.57343 -0.185138 -2.30922
upperback 2.3946 -0.380166 1.63127
thorax -1.7439 -0.193403 3.01687
lowerneck -2.386 -14.0628 -18.1232
upperneck 12.9045 -19.2032 10.0302
head 7.0631 -9.6556 4.29383
rclavicle -8.39865e-015 -1.19271e-015
rhumerus -24.6387 3.70554 -88.9407
rradius 33.4867
rwrist -10.2497
rhand -19.4767 14.9907
rfingers 7.12502
rthumb 6.84501 -14.8787
lclavicle -8.39865e-015 -1.19271e-015
lhumerus -38.7427 10.9415 80.9931
lradius 28.4925
lwrist 2.60942
lhand -15.857 25.8269
lfingers 7.12502
lthumb 10.3382 55.5528
rfemur -13.0595 -8.19576 19.5006
rtibia 47.3809
rfoot -19.754 -20.1441
rtoes 24.0184
lfemur -8.13114 -0.529159 -19.1151
ltibia 26.9616
lfoot -13.9522 -13.5209
ltoes 7.3947
3614
root -11.5555 17.3919 -2.04588 178.237 -181.586 181.142
lowerback 7.64641 -0.335175 -2.71096
upperback 2.41578 -0.611263 1.61514
thorax -1.74162 -0.309164 3.24838
lowerneck -2.46612 -14.1069 -17.997
upperneck 12.8352 -19.2448 9.97579
head 7.04164 -9.66967 4.25005
rclavicle -5.61567e-015 9.93923e-015
rhumerus -24.762 4.49022 -89.4037
rradius 34.302
rwrist -10.9388
rhand -19.5124 15.2312
rfingers 7.12502
rthumb 6.81056 -14.6392
lclavicle -5.61567e-015 9.93923e-015
lhumerus -38.7897 11.1883 80.7498
lradius 27.9935
lwrist 1.84764
lhand -15.9311 25.6527
lfingers 7.12502
lthumb 10.2666 55.3822
rfemur -13.2996 -7.351 19.1576
rtibia 47.7735
rfoot -20.4858 -18.6424
rtoes 23.8789
lfemur -8.09627 -0.728797 -19.2936
ltibia 26.7483
lfoot -13.5023 -13.9714
ltoes 9.66354
3615
root -11.5676 17.3846 -2.05263 178.188 -181.99 180.98
lowerback 7.74356 -0.482236 -2.70917
upperback 2.44812 -0.80652 1.70333
thorax -1.74577 -0.407135 3.35744
lowerneck -2.41384 -14.1646 -17.9986
upperneck 12.7171 -19.3353 10.0473
head 7.01493 -9.71031 4.26538
rclavicle -1.09332e-015 7.55382e-015
rhumerus -24.8344 4.74214 -89.6957
rradius 35.1621
rwrist -10.7483
rhand -19.0761 14.4611
rfingers 7.12502
rthumb 7.23169 -15.3953
lclavicle -1.09332e-015 7.55382e-015
lhumerus -38.8304 11.4414 80.5083
lradius 27.4596
lwrist 1.05626
lhand -15.2458 24.93
lfingers 7.12502
lthumb 10.9277 54.6256
rfemur -13.3932 -6.5446 19.2509
rtibia 48.0332
rfoot -20.7418 -17.3169
rtoes 23.0844
lfemur -8.04407 -1.06123 -19.0594
ltibia 26.6117
lfoot -13.2612 -14.2796
ltoes 10.7428
3616
root -11.5885 17.3797 -2.05403 178.106 -182.454 180.795
lowerback 7.82514 -0.598753 -2.70543
upperback 2.493 -0.960627 1.78876
thorax -1.73102 -0.48509 3.45877
lowerneck -2.17639 -14.1897 -18.2633
upperneck 12.5278 -19.4579 10.5436
head 7.00991 -9.7616 4.45723
rclavicle 2.28602e-015 -3.97569e-015
rhumerus -24.9495 5.16547 -90.006
rradius 36.0675
rwrist -10.7407
rhand -19.0147 13.667
rfingers 7.12502
rthumb 7.291 -16.1874
lclavicle 2.28602e-015 -3.97569e-015
lhumerus -38.8136 11.4795 80.3382
lradius 26.8693
lwrist 0.401645
lhand -14.5751 24.3093
lfingers 7.12502
lthumb 11.5745 53.9696
rfemur -13.3718 -5.49935 19.4104
rtibia 48.1432
rfoot -21.443 -15.9828
rtoes 20.5928
lfemur -8.0546 -1.17474 -18.7547
ltibia 26.6033
lfoot -13.092 -14.7802
ltoes 10.9291
3617
root -11.613 17.3801 -2.05654 178.068 -182.912 180.695
lowerback 7.92435 -0.705977 -2.83504
upperback 2.49841 -1.11356 1.85373
thorax -1.764 -0.561073 3.61534
lowerneck -2.00241 -14.1571 -18.3264
upperneck 12.3949 -19.482 10.8755
head 6.98216 -9.76486 4.58156
rclavicle -2.5345e-015 -1.19271e-014
rhumerus -25.0803 5.75224 -90.3887
rradius 36.7394
rwrist -11.0651
rhand -19.3828 13.5962
rfingers 7.12502
rthumb 6.93563 -16.2702
lclavicle -2.5345e-015 -1.19271e-014
lhumerus -38.7574 11.465 80.1907
lradius 26.2774
lwrist -0.368219
lhand -14.4105 24.2541
lfingers 7.12502
lthumb 11.7332 53.9055
rfemur -13.4004 -4.26528 19.4921
rtibia 48.1186
rfoot -22.0571 -14.7649
rtoes 17.3958
lfemur -8.14821 -0.874729 -18.507
ltibia 26.6246
lfoot -12.9372 -15.5953
ltoes 10.7648
3618
root -11.6337 17.3799 -2.05362 178.093 -183.51 180.964
lowerback 7.89363 -0.884812 -3.277
upperback 2.48061 -1.38668 1.76929
thorax -1.73324 -0.697845 3.80148
lowerneck -1.87564 -14.173 -18.1898
upperneck 12.3907 -19.5438 10.9276
head 6.95998 -9.79139 4.58103
rclavicle -2.17669e-014 1.19271e-014
rhumerus -25.1704 6.05716 -90.803
rradius 37.1862
rwrist -11.1019
rhand -19.3263 13.7102
rfingers 7.12502
rthumb 6.99014 -16.1544
lclavicle -2.17669e-014 1.19271e-014
lhumerus -38.7578 11.6409 79.8126
lradius 25.6888
lwrist -1.36921
lhand -13.9527 23.8246
lfingers 7.12502
lthumb 12.1748 53.4503
rfemur -13.4351 -3.44752 19.0836
rtibia 48.0198
rfoot -22.4425 -13.4297
rtoes 13.9746
lfemur -8.20975 -0.541471 -18.7003
ltibia 26.5815
lfoot -12.851 -16.5404
ltoes 10.5518
3619
root -11.6513 17.388 -2.04571 178.197 -184.113 181.353
lowerback 7.66623 -1.03984 -3.6847
upperback 2.50287 -1.62099 1.57189
thorax -1.5568 -0.819089 3.84029
lowerneck -1.69306 -14.2748 -18.023
upperneck 12.3092 -19.7347 11.0231
head 6.92406 -9.87831 4.57635
rclavicle 1.74434e-014 -1.90833e-014
rhumerus -25.1556 6.06735 -91.2265
rradius 37.5281
rwrist -10.9538
rhand -19.2783 13.8149
rfingers 7.12502
rthumb 7.03649 -16.0482
lclavicle 1.74434e-014 -1.90833e-014
lhumerus -38.7149 11.6814 79.3969
lradius 25.2561
lwrist -2.14016
lhand -13.8682 22.9645
lfingers 7.12502
lthumb 12.2562 52.5853
rfemur -13.5394 -2.75474 18.4796
rtibia 47.8568
rfoot -22.843 -11.8651
rtoes 10.0381
lfemur -8.29724 -0.700511 -19.0794
ltibia 26.5194
lfoot -12.7308 -17.0408
ltoes 10.5471
